<svg width="24" height="24" viewBox="0 0 24 24" fill="none" xmlns="http://www.w3.org/2000/svg">
<circle cx="12.2802" cy="12.2802" r="10.0437" stroke="#222222" stroke-width="1.67394"/>
<path d="M20.9875 5.75537C21.7229 6.73515 22.2967 7.84309 22.6696 9.03968C21.4996 11.5492 19.4862 14.333 16.9094 16.9098C14.3324 19.4868 11.5483 21.5003 9.03862 22.6703C7.88256 22.31 6.80926 21.7621 5.85434 21.0622C8.19114 21.5985 19.4526 16.2356 20.9875 5.75537Z" fill="white"/>
<path fill-rule="evenodd" clip-rule="evenodd" d="M2.91135 19.0956C2.86069 19.8931 3.04731 20.377 3.32515 20.6549C3.59453 20.9242 4.05637 21.1075 4.81165 21.0727C5.56741 21.0378 6.52415 20.7846 7.62945 20.2945C9.83463 19.3168 12.4655 17.4702 14.9679 14.9679C17.4702 12.4655 19.3167 9.83467 20.2945 7.62949C20.7845 6.52419 21.0377 5.56745 21.0726 4.81169C21.1075 4.05641 20.9242 3.59457 20.6548 3.32519C20.3813 3.05168 19.9087 2.86673 19.1329 2.90918C18.3575 2.95161 17.3767 3.22019 16.2464 3.73223L15.5556 2.20745C16.7956 1.64576 17.9869 1.29545 19.0415 1.23774C20.0956 1.18006 21.1107 1.41374 21.8385 2.14154C22.5548 2.85791 22.7926 3.85319 22.7448 4.88888C22.697 5.92409 22.3638 7.09216 21.8247 8.30798C20.7442 10.745 18.7615 13.5416 16.1515 16.1516C13.5415 18.7615 10.745 20.7442 8.30794 21.8248C7.09212 22.3638 5.92405 22.697 4.88884 22.7448C3.85315 22.7926 2.85787 22.5549 2.1415 21.8385C1.40178 21.0988 1.17259 20.0629 1.24077 18.9895C1.30905 17.9146 1.67755 16.6989 2.26325 15.4338L3.7823 16.137C3.24692 17.2935 2.96191 18.2996 2.91135 19.0956Z" fill="#222222"/>
<circle cx="8.93234" cy="12.2803" r="1.11596" fill="#222222"/>
<circle cx="12.2801" cy="7.81664" r="2.23192" fill="#222222"/>
</svg>
