<svg width="24" height="24" viewBox="0 0 24 24" fill="none" xmlns="http://www.w3.org/2000/svg">
<circle cx="11.7975" cy="11.7973" r="10.0437" fill="#32B7B3" stroke="#32B7B3" stroke-width="1.67394"/>
<path d="M20.5048 5.27246C21.2402 6.25224 21.8141 7.36018 22.1869 8.55677C21.0169 11.0663 19.0035 13.8501 16.4268 16.4269C13.8498 19.0039 11.0657 21.0174 8.55595 22.1874C7.3999 21.8271 6.32659 21.2792 5.37167 20.5793C7.70848 21.1155 18.9699 15.7527 20.5048 5.27246Z" fill="white"/>
<path fill-rule="evenodd" clip-rule="evenodd" d="M2.42868 18.6127C2.37802 19.4102 2.56464 19.8941 2.84249 20.172C3.11186 20.4413 3.5737 20.6246 4.32898 20.5898C5.08474 20.5549 6.04149 20.3017 7.14678 19.8116C9.35196 18.8339 11.9828 16.9873 14.4852 14.485C16.9875 11.9826 18.8341 9.35176 19.8118 7.14658C20.3019 6.04128 20.5551 5.08454 20.59 4.32878C20.6248 3.5735 20.4415 3.11166 20.1722 2.84228C19.8986 2.56877 19.4261 2.38382 18.6502 2.42627C17.8749 2.4687 16.894 2.73728 15.7637 3.24932L15.073 1.72454C16.3129 1.16285 17.5042 0.812536 18.5588 0.754829C19.6129 0.697151 20.628 0.930831 21.3558 1.65863C22.0722 2.375 22.3099 3.37028 22.2621 4.40597C22.2143 5.44118 21.8811 6.60925 21.3421 7.82507C20.2615 10.2621 18.2788 13.0587 15.6688 15.6686C13.0589 18.2786 10.2623 20.2613 7.82528 21.3419C6.60946 21.8809 5.44139 22.2141 4.40618 22.2619C3.37049 22.3097 2.3752 22.072 1.65883 21.3556C0.919118 20.6159 0.689923 19.58 0.758108 18.5066C0.826388 17.4317 1.19488 16.216 1.78058 14.9509L3.29964 15.6541C2.76426 16.8106 2.47925 17.8167 2.42868 18.6127Z" fill="#32B7B3"/>
<circle cx="8.44967" cy="11.7974" r="1.11596" fill="white"/>
<circle cx="11.7975" cy="7.33373" r="2.23192" fill="white"/>
</svg>
