<svg width="24" height="24" viewBox="0 0 24 24" fill="none" xmlns="http://www.w3.org/2000/svg">
<path d="M9.07689 2.49976H3.43942C2.92051 2.49976 2.49985 2.92042 2.49985 3.43933V9.0768C2.49985 9.59573 2.92051 10.0164 3.43942 10.0164H9.07689C9.59582 10.0164 10.0165 9.59573 10.0165 9.0768V3.43933C10.0165 2.92042 9.59582 2.49976 9.07689 2.49976Z" fill="#32B7B3" stroke="#32B7B3" stroke-width="1.56596" stroke-linejoin="round"/>
<path d="M20.5601 2.49976H14.9226C14.4037 2.49976 13.9831 2.92042 13.9831 3.43933V9.0768C13.9831 9.59573 14.4037 10.0164 14.9226 10.0164H20.5601C21.079 10.0164 21.4997 9.59573 21.4997 9.0768V3.43933C21.4997 2.92042 21.079 2.49976 20.5601 2.49976Z" fill="#32B7B3" stroke="#32B7B3" stroke-width="1.56596" stroke-linejoin="round"/>
<path d="M9.07671 13.9836H3.43924C2.92033 13.9836 2.49966 14.4043 2.49966 14.9232V20.5607C2.49966 21.0796 2.92033 21.5003 3.43924 21.5003H9.07671C9.59564 21.5003 10.0163 21.0796 10.0163 20.5607V14.9232C10.0163 14.4043 9.59564 13.9836 9.07671 13.9836Z" fill="#32B7B3" stroke="#32B7B3" stroke-width="1.56596" stroke-linejoin="round"/>
<path d="M13.9831 13.9834H21.4997" stroke="#32B7B3" stroke-width="1.56596" stroke-linecap="round" stroke-linejoin="round"/>
<path d="M17.1145 17.7419H21.4992" stroke="#32B7B3" stroke-width="1.56596" stroke-linecap="round" stroke-linejoin="round"/>
<path d="M13.9831 21.5002H21.4997" stroke="#32B7B3" stroke-width="1.56596" stroke-linecap="round" stroke-linejoin="round"/>
</svg>
