<svg width="24" height="24" viewBox="0 0 24 24" fill="none" xmlns="http://www.w3.org/2000/svg">
<path d="M9.07694 2.49976H3.43956C2.92066 2.49976 2.5 2.92041 2.5 3.43932V9.07674C2.5 9.59566 2.92066 10.0163 3.43956 10.0163H9.07694C9.59586 10.0163 10.0165 9.59566 10.0165 9.07674V3.43932C10.0165 2.92041 9.59586 2.49976 9.07694 2.49976Z" stroke="#222222" stroke-width="1.56594" stroke-linejoin="round"/>
<path d="M20.5604 2.5H14.923C14.4041 2.5 13.9835 2.92066 13.9835 3.43957V9.07698C13.9835 9.59591 14.4041 10.0166 14.923 10.0166H20.5604C21.0793 10.0166 21.5 9.59591 21.5 9.07698V3.43957C21.5 2.92066 21.0793 2.5 20.5604 2.5Z" stroke="#222222" stroke-width="1.56594" stroke-linejoin="round"/>
<path d="M9.07691 13.9836H3.43953C2.92063 13.9836 2.49997 14.4043 2.49997 14.9232V20.5606C2.49997 21.0795 2.92063 21.5002 3.43953 21.5002H9.07691C9.59583 21.5002 10.0165 21.0795 10.0165 20.5606V14.9232C10.0165 14.4043 9.59583 13.9836 9.07691 13.9836Z" stroke="#222222" stroke-width="1.56594" stroke-linejoin="round"/>
<path d="M13.9835 13.9836H21.5" stroke="#222222" stroke-width="1.56594" stroke-linecap="round" stroke-linejoin="round"/>
<path d="M17.1146 17.7419H21.4992" stroke="#222222" stroke-width="1.56594" stroke-linecap="round" stroke-linejoin="round"/>
<path d="M13.9835 21.5002H21.5" stroke="#222222" stroke-width="1.56594" stroke-linecap="round" stroke-linejoin="round"/>
</svg>
