<svg width="24" height="24" viewBox="0 0 24 24" fill="none" xmlns="http://www.w3.org/2000/svg">
<path d="M12.0003 12.2703C14.8363 12.2703 17.1354 9.97119 17.1354 7.13514C17.1354 4.29908 14.8363 2 12.0003 2C9.16421 2 6.86513 4.29908 6.86513 7.13514C6.86513 9.97119 9.16421 12.2703 12.0003 12.2703Z" fill="#32B7B3" stroke="#32B7B3" stroke-width="1.62162"/>
<path d="M10.1084 7.59781C10.342 8.42273 11.1005 9.0271 12.0003 9.0271C12.9 9.0271 13.6586 8.42273 13.8922 7.59781" stroke="white" stroke-width="1.62162" stroke-linecap="round"/>
<path d="M2.81108 18.7567C2.81108 16.3684 4.74715 14.4324 7.13541 14.4324H16.8651C19.2534 14.4324 21.1895 16.3684 21.1895 18.7567V20.9189C21.1895 21.5159 20.7054 21.9999 20.1084 21.9999H3.89216C3.2951 21.9999 2.81108 21.5159 2.81108 20.9189V18.7567Z" fill="#32B7B3" stroke="#32B7B3" stroke-width="1.62162"/>
</svg>
