<svg width="20" height="19" viewBox="0 0 20 19" fill="none" xmlns="http://www.w3.org/2000/svg">
<path d="M1.75 4.5C1.75 4.36193 1.86193 4.25 2 4.25H14C14.1381 4.25 14.25 4.36193 14.25 4.5V18C14.25 18.1381 14.1381 18.25 14 18.25H2C1.86193 18.25 1.75 18.1381 1.75 18V4.5Z" stroke="#999999" stroke-width="1.5"/>
<path d="M5 2.5V2C5 1.44772 5.44772 1 6 1L16.75 1C17.3023 1 17.75 1.44772 17.75 2V14.5C17.75 15.0523 17.3023 15.5 16.75 15.5H16" stroke="#999999" stroke-width="1.5"/>
<line x1="4" y1="8.75" x2="12" y2="8.75" stroke="#999999" stroke-width="1.5"/>
<line x1="4" y1="13.75" x2="12" y2="13.75" stroke="#999999" stroke-width="1.5"/>
</svg>
