<svg width="24" height="24" viewBox="0 0 24 24" fill="none" xmlns="http://www.w3.org/2000/svg">
<path d="M17.3161 22.0001H6.44444C3.98984 22.0001 2 20.0102 2 17.5556V17.0388V5.30792L4.81013 7.70406" stroke="#222222" stroke-width="1.66667" stroke-linecap="round" stroke-linejoin="round"/>
<path d="M6.68391 1.99994H17.5556C20.0102 1.99994 22 3.98979 22 6.44438V6.96115V18.6921L19.1899 16.2959" stroke="#222222" stroke-width="1.66667" stroke-linecap="round" stroke-linejoin="round"/>
<path d="M11.5667 8.18897H12.6889V8.90008H14.5111V9.85564H12.6889V10.6779H14.8445V11.6779H9.3889V10.6779H11.5667V9.85564H9.6889V8.90008H11.5667V8.18897ZM16.4556 6.88897V15.7667C16.4556 16.4445 16.0445 16.789 15.2445 16.789H13.8556L13.5556 15.6779C14.0333 15.7112 14.4778 15.7334 14.9 15.7334C15.1667 15.7334 15.3 15.6001 15.3 15.3556V7.95564H8.94446V11.289C8.92224 13.5667 8.52224 15.4223 7.74446 16.8445L6.85557 16.0445C7.45557 14.8223 7.76668 13.2667 7.7889 11.3779V6.88897H16.4556ZM9.6889 12.2667H14.4333V15.2112H9.6889V12.2667ZM13.3222 14.2112V13.2334H10.8V14.2112H13.3222Z" fill="#222222"/>
</svg>
