<svg width="24" height="24" viewBox="0 0 24 24" fill="none" xmlns="http://www.w3.org/2000/svg">
<path d="M12.4497 20.2206C11.9366 20.7337 11.1048 20.7337 10.5917 20.2206L3.39864 13.0275C1.21451 10.8434 1.21451 7.30225 3.39864 5.11813C5.58277 2.934 9.12393 2.934 11.3081 5.11813L11.5205 5.33059L12.213 4.63809C14.3972 2.45397 17.9383 2.45397 20.1225 4.6381C22.3066 6.82222 22.3066 10.3634 20.1224 12.5475L18.5062 14.1587" stroke="#32B7B3" stroke-width="1.5" stroke-linecap="round"/>
<path d="M5.76073 15.4013C4.23184 13.8531 4.23184 11.343 5.76073 9.79487C7.28962 8.2467 9.76843 8.2467 11.2973 9.79487L11.4463 9.94572L11.9313 9.45458C13.4602 7.90641 15.939 7.90641 17.4679 9.45458C18.7399 10.7426 19.256 12.6545 18.4514 14.1819" stroke="#32B7B3" stroke-width="1.5" stroke-linecap="round" stroke-linejoin="round"/>
<path fill-rule="evenodd" clip-rule="evenodd" d="M20.6959 15.2475C20.3807 14.9787 19.9073 15.0163 19.6385 15.3314C19.4357 15.5691 19.4073 15.897 19.5409 16.159H14.9426C14.5284 16.159 14.1926 16.4948 14.1926 16.909C14.1926 17.3233 14.5284 17.659 14.9426 17.659H21.4881C21.8023 17.659 22.0831 17.4632 22.1918 17.1684C22.3005 16.8736 22.2138 16.5423 21.9748 16.3384L20.6959 15.2475ZM15.7343 21.2977C16.0494 21.5665 16.5228 21.529 16.7916 21.2138C16.9944 20.9761 17.0228 20.6483 16.8892 20.3862H21.4875C21.9017 20.3862 22.2375 20.0504 22.2375 19.6362C22.2375 19.222 21.9017 18.8862 21.4875 18.8862H14.9421C14.6279 18.8862 14.347 19.082 14.2383 19.3768C14.1297 19.6716 14.2163 20.0029 14.4553 20.2068L15.7343 21.2977Z" fill="#32B7B3"/>
</svg>
